<?xml version="1.0" encoding="UTF-8"?>
<svg version="1.1" xmlns="http://www.w3.org/2000/svg" width="1080" height="1980">
<path d="M0 0 C85.47 0 170.94 0 259 0 C259 64.35 259 128.7 259 195 C173.53 195 88.06 195 0 195 C0 130.65 0 66.3 0 0 Z " fill="#FDFDFD" transform="translate(0,0)"/>
<path d="M0 0 C0.66 0 1.32 0 2 0 C7.42421927 6.0327054 9.19665343 12.10042537 10 20 C10.33 19.34 10.66 18.68 11 18 C11.99 18 12.98 18 14 18 C13.48594831 22.96916636 12.76615118 27.29026351 11 32 C10.01 32 9.02 32 8 32 C7.79697266 32.8353125 7.79697266 32.8353125 7.58984375 33.6875 C5.43907733 41.31177379 1.62514093 46.53181894 -4.9375 51 C-10.19886437 52.71799653 -14.11513499 52.94243251 -19.125 50.4375 C-24.32245473 46.0309623 -28.39181117 41.37557269 -31 35 C-31 34.01 -31 33.02 -31 32 C-31.99 32 -32.98 32 -34 32 C-36.03993514 27.07015675 -37.40652968 23.42039575 -37 18 C-36.01 18 -35.02 18 -34 18 C-33.67 16.68 -33.34 15.36 -33 14 C-32.05640625 13.91363281 -31.1128125 13.82726563 -30.140625 13.73828125 C-20.07429396 12.63664462 -9.27747133 11.40393575 -2.375 3.1875 C-1.59125 2.135625 -0.8075 1.08375 0 0 Z " fill="#FAFCFC" transform="translate(141,38)"/>
<path d="M0 0 C0.66 0.33 1.32 0.66 2 1 C1.72285156 1.60328125 1.44570312 2.2065625 1.16015625 2.828125 C0.79792969 3.62734375 0.43570313 4.4265625 0.0625 5.25 C-0.29714844 6.03890625 -0.65679687 6.8278125 -1.02734375 7.640625 C-4.77553138 16.73261426 -3.27174491 27.46191321 -2 37 C-2 37.66 -2 38.32 -2 39 C-0.95328125 38.82984375 0.0934375 38.6596875 1.171875 38.484375 C5 39 5 39 6.43164062 40.49414062 C7.81785677 42.69803265 9.04642385 44.94125329 10.25 47.25 C14.40617449 54.6583244 18.84945249 60.65991495 24.78515625 66.71484375 C27 69 27 69 29 72 C10.51425151 69.90637598 -7.47426755 59.35421232 -21 47 C-21.87011719 46.21109375 -22.74023438 45.4221875 -23.63671875 44.609375 C-30.85629529 37.76381106 -30.85629529 37.76381106 -31 33 C-25.47527981 19.34273715 -12.9976634 6.78233778 0 0 Z " fill="#10A1C6" transform="translate(96,97)"/>
<path d="M0 0 C12.361073 5.19602626 22.21608361 13.42426966 29 25 C29.52851563 25.88300781 30.05703125 26.76601562 30.6015625 27.67578125 C34.21335683 34.19439402 34.21335683 34.19439402 33.3203125 37.56640625 C24.00293617 54.7401502 -1.31580951 66.3817817 -19 72 C-20.99158128 72.3804144 -22.99014439 72.73243408 -25 73 C-23.824375 71.7315625 -23.824375 71.7315625 -22.625 70.4375 C-19.38560572 66.66591952 -16.62664633 62.63153547 -13.875 58.5 C-13.45557129 57.87150146 -13.03614258 57.24300293 -12.60400391 56.59545898 C-9.89539896 52.48550118 -7.4026323 48.29595084 -5 44 C-4.39671875 44.01160156 -3.7934375 44.02320313 -3.171875 44.03515625 C-2.37265625 44.04417969 -1.5734375 44.05320313 -0.75 44.0625 C0.03890625 44.07410156 0.8278125 44.08570313 1.640625 44.09765625 C3.90691002 44.00385306 5.8288895 43.63241063 8 43 C9.18391699 39.30025941 9.27585754 35.86200562 9 32 C8.26330078 31.12214844 8.26330078 31.12214844 7.51171875 30.2265625 C5.39000734 27.1015612 5.62788312 24.62106835 5.5625 20.875 C5.32264487 14.20767576 3.87437516 8.98828158 1 3 C0.67 2.01 0.34 1.02 0 0 Z " fill="#10A1C6" transform="translate(160,96)"/>
<path d="M0 0 C5.38603393 3.88226899 8.60963249 8.50788074 10 15 C10.36054493 17.92746804 10.61895001 20.83277756 10.7890625 23.77734375 C10.75914935 25.97152842 10.75914935 25.97152842 12 27 C12.38959912 35.2323987 9.2621316 41.18855603 5 48 C4.51015625 48.81984375 4.0203125 49.6396875 3.515625 50.484375 C-0.45356643 56.84361718 -5.42988112 63.05894388 -13 65 C-17.9946357 65.77694333 -20.94577213 64.35193765 -24.98046875 61.61328125 C-30.44668856 57.24664918 -34.26863239 52.14780008 -37.1640625 45.8125 C-38.04709143 43.80935701 -38.04709143 43.80935701 -39.625 41.3125 C-42.31054036 36.7959094 -43.45098956 33.29912729 -43 28 C-42.66097656 27.39800781 -42.32195312 26.79601562 -41.97265625 26.17578125 C-40.71122464 23.3540246 -40.97681411 21.31885862 -41.1875 18.25 C-41.28460131 12.11767875 -40.03687549 8.5800962 -36 4 C-25.93070416 -6.06929584 -12.33364164 -6.49239832 0 0 Z M-4 10 C-4.78375 11.051875 -5.5675 12.10375 -6.375 13.1875 C-13.85728908 22.09412845 -26.13974538 23.0059603 -37 24 C-37.33 25.32 -37.66 26.64 -38 28 C-38.99 28 -39.98 28 -41 28 C-41.40652968 33.42039575 -40.03993514 37.07015675 -38 42 C-37.01 42 -36.02 42 -35 42 C-34.938125 42.66 -34.87625 43.32 -34.8125 44 C-32.81742175 51.36644278 -28.07051134 56.5809124 -22 61 C-17.83501084 63.08249458 -13.20525502 62.39355266 -8.9375 61 C-1.79640943 56.13798089 1.97361054 50.33714521 4 42 C4.99 42 5.98 42 7 42 C9.60026749 35.19431865 9.60026749 35.19431865 10 28 C9.01 28 8.02 28 7 28 C6.67 28.66 6.34 29.32 6 30 C5.90203125 29.35933594 5.8040625 28.71867187 5.703125 28.05859375 C4.44385299 20.77435652 2.09109532 16.13664297 -2 10 C-2.66 10 -3.32 10 -4 10 Z " fill="#294E8B" transform="translate(145,28)"/>
<path d="M0 0 C2.02237052 0.95394836 4.0282696 1.94535351 6 3 C5.00250763 5.2251753 4.28037548 6.76894358 2.37890625 8.3359375 C0.74103637 9.93182218 0.74103637 9.93182218 1.109375 12.26953125 C1.42648438 13.52830078 1.42648438 13.52830078 1.75 14.8125 C2.06324219 16.13314453 2.06324219 16.13314453 2.3828125 17.48046875 C2.58648437 18.31191406 2.79015625 19.14335938 3 20 C3.34450114 21.99810662 3.68377223 23.99722415 4 26 C4.66 26 5.32 26 6 26 C6.38285156 24.94232422 6.38285156 24.94232422 6.7734375 23.86328125 C8.11550522 20.7303652 9.76729867 18.04285575 11.625 15.1875 C12.25664062 14.21167969 12.88828125 13.23585938 13.5390625 12.23046875 C14.02117187 11.49441406 14.50328125 10.75835937 15 10 C16.82727725 13.65455451 14.80064075 17.81828093 13.8125 21.625 C13.5556543 22.6145166 13.29880859 23.6040332 13.03417969 24.62353516 C10.45842913 34.06747422 7.17960404 43.21544306 3.75 52.375 C3.48224762 53.09552551 3.21449524 53.81605103 2.93862915 54.55841064 C2.17155599 56.61294635 1.39314225 58.66271962 0.609375 60.7109375 C-0.0717334 62.49443604 -0.0717334 62.49443604 -0.76660156 64.31396484 C-2 67 -2 67 -4 68 C-25.50906096 20.84876442 -25.50906096 20.84876442 -22 11 C-21.45730469 11.75925781 -20.91460937 12.51851562 -20.35546875 13.30078125 C-19.64003906 14.29464844 -18.92460938 15.28851563 -18.1875 16.3125 C-17.47980469 17.29863281 -16.77210937 18.28476563 -16.04296875 19.30078125 C-14.45369163 21.40057187 -12.92542371 23.22034969 -11 25 C-10.29954544 23.08802961 -9.615081 21.17019565 -8.9375 19.25 C-8.55464844 18.18265625 -8.17179687 17.1153125 -7.77734375 16.015625 C-7.00311788 13.01209548 -6.79514498 11.79526365 -8 9 C-9.15910377 7.27381863 -9.15910377 7.27381863 -10.5625 5.75 C-11.366875 4.8425 -12.17125 3.935 -13 3 C-4.64192228 -1.83233774 -4.64192228 -1.83233774 0 0 Z " fill="#294E8B" transform="translate(133,98)"/>
<path d="M0 0 C7.49399188 2.61509092 12.35172763 8.11834521 16 15.0625 C18.88623769 21.91610789 18.44360892 28.69523983 18 36 C17.34 36 16.68 36 16 36 C15.90203125 34.78183594 15.8040625 33.56367187 15.703125 32.30859375 C15.55294898 30.68481554 15.40185862 29.06112171 15.25 27.4375 C15.188125 26.63763672 15.12625 25.83777344 15.0625 25.01367188 C14.51063145 19.38001374 13.12301107 15.72894969 10 11 C8.68 11.33 7.36 11.66 6 12 C6.04640625 12.60328125 6.0928125 13.2065625 6.140625 13.828125 C6.19476563 15.02695313 6.19476563 15.02695313 6.25 16.25 C6.29640625 17.03890625 6.3428125 17.8278125 6.390625 18.640625 C5.85911221 21.85096224 4.34410678 22.77840751 2 25 C0.19366012 27.82198004 -1.50437066 30.67255055 -3.17578125 33.57421875 C-4.06711305 35.08026213 -5.02828209 36.54452642 -6 38 C-6.66 38 -7.32 38 -8 38 C-8.70005949 35.92085336 -9.38462244 33.83648414 -10.0625 31.75 C-10.44535156 30.58984375 -10.82820312 29.4296875 -11.22265625 28.234375 C-11.95684835 25.17954558 -12.20677894 23.83330707 -11 21 C-9.4375 19.25 -9.4375 19.25 -8 18 C-7.01 18.33 -6.02 18.66 -5 19 C-5 19.66 -5 20.32 -5 21 C-3.35 20.67 -1.7 20.34 0 20 C1.2063366 14.77254141 0.75612577 10.23471686 0 5 C0.99 4.67 1.98 4.34 3 4 C2.01 3.34 1.02 2.68 0 2 C0 1.34 0 0.68 0 0 Z " fill="#F9FBFB" transform="translate(145,86)"/>
<path d="M0 0 C3.5625 0.25 3.5625 0.25 7 1 C7.33 1.66 7.66 2.32 8 3 C8.66 2.01 9.32 1.02 10 0 C13.625 -0.1875 13.625 -0.1875 17 0 C17 0.66 17 1.32 17 2 C15 3.625 15 3.625 13 5 C13.44472656 5.37511719 13.88945313 5.75023438 14.34765625 6.13671875 C15.19650391 6.90435547 15.19650391 6.90435547 16.0625 7.6875 C16.63097656 8.18636719 17.19945313 8.68523437 17.78515625 9.19921875 C19 11 19 11 18.8125 13.3125 C17.89995767 16.33090926 16.95440878 19.32738068 15.9375 22.3125 C15.57527344 23.38113281 15.21304688 24.44976562 14.83984375 25.55078125 C14.56269531 26.35902344 14.28554687 27.16726562 14 28 C10.64982608 23.97979129 7.71474103 19.72924301 4.78125 15.40234375 C3.0610968 12.9435386 3.0610968 12.9435386 0.8359375 10.91796875 C-1.81348887 8.15016375 -1.86134604 5.74365701 -2 2 C-1.34 1.34 -0.68 0.68 0 0 Z " fill="#F7F9FA" transform="translate(108,97)"/>
<path d="M0 0 C0.99 0.66 1.98 1.32 3 2 C2.96375378 10.35475419 0.38243517 15.9962952 -4 23 C-4.48984375 23.81984375 -4.9796875 24.6396875 -5.484375 25.484375 C-9.45356643 31.84361718 -14.42988112 38.05894388 -22 40 C-26.9946357 40.77694333 -29.94577213 39.35193765 -33.98046875 36.61328125 C-39.44668856 32.24664918 -43.26863239 27.14780008 -46.1640625 20.8125 C-47.04709143 18.80935701 -47.04709143 18.80935701 -48.625 16.3125 C-51.2778162 11.85094548 -52.5837533 8.25377974 -52 3 C-51.01 2.34 -50.02 1.68 -49 1 C-48.67 1.66 -48.34 2.32 -48 3 C-48.66 3 -49.32 3 -50 3 C-49.01 7.62 -48.02 12.24 -47 17 C-46.01 17 -45.02 17 -44 17 C-43.64808594 17.79664062 -43.29617187 18.59328125 -42.93359375 19.4140625 C-39.52212884 26.73579658 -36.46374971 32.26812515 -29 36 C-23.39556595 36.37362894 -19.7958721 36.23200076 -15 33 C-10.05958336 28.44246565 -7.39410408 23.21058764 -5 17 C-4.01 17 -3.02 17 -2 17 C-1.01 12.38 -0.02 7.76 1 3 C0.34 2.67 -0.32 2.34 -1 2 C-0.67 1.34 -0.34 0.68 0 0 Z " fill="#21A3C5" transform="translate(154,53)"/>
<path d="M0 0 C2.09765625 0.34375 2.09765625 0.34375 4.16015625 1.90625 C5.47647828 5.32868728 5.61687093 7.70924727 5.09765625 11.34375 C3.03515625 13.84375 3.03515625 13.84375 0.09765625 15.34375 C-3.36993317 15.28396398 -5.79061124 14.95340977 -8.83984375 13.28125 C-10.54199809 10.1773215 -10.61082381 6.78890796 -9.90234375 3.34375 C-7.18847657 -0.41982053 -4.33974882 -0.16935605 0 0 Z " fill="#10A1C6" transform="translate(162.90234375,123.65625)"/>
<path d="M0 0 C3.5625 0.25 3.5625 0.25 7 1 C7.33 1.66 7.66 2.32 8 3 C8.66 2.01 9.32 1.02 10 0 C13.625 -0.1875 13.625 -0.1875 17 0 C17 0.66 17 1.32 17 2 C15 3.625 15 3.625 13 5 C13.99 6.485 13.99 6.485 15 8 C8.71428571 10.42857143 8.71428571 10.42857143 5 9 C4.67 7.35 4.34 5.7 4 4 C3.34 4 2.68 4 2 4 C2.5259375 5.423125 2.5259375 5.423125 3.0625 6.875 C4 10 4 10 3 12 C2.34 12 1.68 12 1 12 C-1.50116925 8.6330414 -2.56753383 6.19975031 -2 2 C-1.34 1.34 -0.68 0.68 0 0 Z " fill="#F1F2F3" transform="translate(108,97)"/>
<path d="M0 0 C2.02237052 0.95394836 4.0282696 1.94535351 6 3 C4.4722133 6.43752007 2.49818944 9.18953688 0 12 C-0.66 12 -1.32 12 -2 12 C-2.33 10.68 -2.66 9.36 -3 8 C-4.32 8 -5.64 8 -7 8 C-7.33 6.35 -7.66 4.7 -8 3 C-8.66 4.32 -9.32 5.64 -10 7 C-10.99 5.68 -11.98 4.36 -13 3 C-4.64192228 -1.83233774 -4.64192228 -1.83233774 0 0 Z " fill="#33558C" transform="translate(133,98)"/>
<path d="M0 0 C0.99 0.33 1.98 0.66 3 1 C1.9171875 1.8353125 1.9171875 1.8353125 0.8125 2.6875 C-6.06661101 8.34365794 -13.22843234 15.98122323 -14.24975586 25.27197266 C-14.41969669 27.95213912 -14.53395332 30.62851972 -14.625 33.3125 C-14.66367188 34.24384766 -14.70234375 35.17519531 -14.7421875 36.13476562 C-14.83606313 38.42298407 -14.92174509 40.71120295 -15 43 C-15.66 42.67 -16.32 42.34 -17 42 C-17.52978817 28.62284864 -17.74468904 18.10017063 -8.5 7.5 C-3.27004008 1.98346693 -3.27004008 1.98346693 0 0 Z " fill="#33588E" transform="translate(112,86)"/>
<path d="M0 0 C0.66 0 1.32 0 2 0 C2 0.66 2 1.32 2 2 C3.65 2 5.3 2 7 2 C7.25 8.625 7.25 8.625 5 12 C2.375 12.1875 2.375 12.1875 0 12 C-1.0625 10.125 -1.0625 10.125 -2 8 C-1.67 7.34 -1.34 6.68 -1 6 C-2.98 5.34 -4.96 4.68 -7 4 C-6.67 3.34 -6.34 2.68 -6 2 C-4.34178227 1.62690101 -2.67422986 1.29299023 -1 1 C-0.67 0.67 -0.34 0.34 0 0 Z " fill="#F2F3F4" transform="translate(140,95)"/>
<path d="M0 0 C7.49399188 2.61509092 12.35172763 8.11834521 16 15.0625 C18.88623769 21.91610789 18.44360892 28.69523983 18 36 C17.34 36 16.68 36 16 36 C15.88785156 34.20755859 15.88785156 34.20755859 15.7734375 32.37890625 C14.84818272 20.31890726 12.98254716 13.22546667 3.625 5.0625 C2.93664062 4.51722656 2.24828125 3.97195312 1.5390625 3.41015625 C1.03117188 2.94480469 0.52328125 2.47945313 0 2 C0 1.34 0 0.68 0 0 Z " fill="#2F548B" transform="translate(145,86)"/>
<path d="M0 0 C0.33 0 0.66 0 1 0 C1.03738281 1.03640625 1.07476562 2.0728125 1.11328125 3.140625 C1.17895788 4.51045184 1.24540464 5.88024191 1.3125 7.25 C1.33505859 7.93191406 1.35761719 8.61382812 1.38085938 9.31640625 C1.60744798 13.55979281 2.26751264 15.79041167 5 19 C5.36988233 23.14268205 5.54160859 26.56882841 3 30 C-0.43239419 32.54251421 -3.86247946 32.15913541 -8 32 C-7.505 30.515 -7.505 30.515 -7 29 C-5.88625 28.87625 -4.7725 28.7525 -3.625 28.625 C0.03103677 28.3534187 0.03103677 28.3534187 2 26 C2.31537716 21.66356399 2.44897847 19.67346771 0 16 C-3.56769552 15.26393501 -3.56769552 15.26393501 -7 15 C-7 14.67 -7 14.34 -7 14 C-5.35 14 -3.7 14 -2 14 C-2.02320313 13.24074219 -2.04640625 12.48148438 -2.0703125 11.69921875 C-2.08835938 10.70535156 -2.10640625 9.71148437 -2.125 8.6875 C-2.14820313 7.70136719 -2.17140625 6.71523437 -2.1953125 5.69921875 C-2 3 -2 3 0 0 Z " fill="#D1EAEF" transform="translate(165,109)"/>
<path d="M0 0 C0.99 0.33 1.98 0.66 3 1 C3.6875 3.0625 3.6875 3.0625 4 5 C4.99 5 5.98 5 7 5 C0.31460674 11.9241573 0.31460674 11.9241573 -4.25 12.1875 C-5.1575 12.125625 -6.065 12.06375 -7 12 C-6.67 9.69 -6.34 7.38 -6 5 C-4.35 4.67 -2.7 4.34 -1 4 C-0.67 2.68 -0.34 1.36 0 0 Z " fill="#F2F5F5" transform="translate(87,93)"/>
<path d="M0 0 C0.66 0 1.32 0 2 0 C3.22616817 3.6785045 2.6183713 4.40419912 1.125 7.875 C-1.04483991 13.42179213 -1.50915285 18.42338506 -1.62890625 24.34765625 C-1.81259766 25.66056641 -1.81259766 25.66056641 -2 27 C-2.99 27.66 -3.98 28.32 -5 29 C-5.43337469 20.75384264 -5.2207499 13.96506607 -1.97265625 6.3046875 C-1.08714293 4.20648325 -0.48589641 2.2197794 0 0 Z " fill="#C5E0E8" transform="translate(97,96)"/>
<path d="M0 0 C2.25 -0.3125 2.25 -0.3125 5 0 C7.3125 2.5 7.3125 2.5 9 5 C8.01 5.66 7.02 6.32 6 7 C5.63637182 9.20725073 5.63637182 9.20725073 5.8125 11.625 C5.83957031 12.44226563 5.86664063 13.25953125 5.89453125 14.1015625 C5.92933594 14.72804688 5.96414062 15.35453125 6 16 C5.01 16 4.02 16 3 16 C2.92652344 14.95199219 2.92652344 14.95199219 2.8515625 13.8828125 C2.73941406 12.51769531 2.73941406 12.51769531 2.625 11.125 C2.55539063 10.22007813 2.48578125 9.31515625 2.4140625 8.3828125 C2.20431868 5.82058097 2.20431868 5.82058097 0 4 C0 2.68 0 1.36 0 0 Z " fill="#F4F4F5" transform="translate(145,91)"/>
<path d="M0 0 C3.48331435 3.01887244 4.79157144 5.56909529 6 10 C3.6739143 10.38063221 1.33944736 10.71269945 -1 11 C-2 10 -2 10 -2.1875 6.625 C-2 3 -2 3 0 0 Z " fill="#F0F1F3" transform="translate(154,96)"/>
<path d="M0 0 C5.01073614 5.84585882 6.31521974 10.16712972 6.125 17.8125 C6.11597656 18.50537109 6.10695312 19.19824219 6.09765625 19.91210938 C6.07426157 21.60822395 6.03839641 23.30415871 6 25 C5.67 25 5.34 25 5 25 C4.90203125 24.10539062 4.8040625 23.21078125 4.703125 22.2890625 C3.75568889 14.62789812 2.31538614 7.98484263 -1 1 C-0.67 0.67 -0.34 0.34 0 0 Z " fill="#F5FAFA" transform="translate(159,96)"/>
<path d="M0 0 C0.99 0 1.98 0 3 0 C2.67 1.65 2.34 3.3 2 5 C2.66 5.33 3.32 5.66 4 6 C4 6.99 4 7.98 4 9 C1.36 9.66 -1.28 10.32 -4 11 C-3.52269162 9.5410574 -3.04308958 8.08286504 -2.5625 6.625 C-2.29566406 5.81289062 -2.02882813 5.00078125 -1.75390625 4.1640625 C-1 2 -1 2 0 0 Z " fill="#F3F4F5" transform="translate(102,98)"/>
<path d="M0 0 C0.78375 0.165 1.5675 0.33 2.375 0.5 C6.93966142 1.12960847 11.40072601 1.08180527 16 1 C16 1.99 16 2.98 16 4 C11.11682489 5.01871227 7.38456255 5.65965743 2.9375 3.0625 C1.968125 2.381875 0.99875 1.70125 0 1 C0 0.67 0 0.34 0 0 Z " fill="#34ABC9" transform="translate(119,88)"/>
<path d="M0 0 C0.66 0.66 1.32 1.32 2 2 C1.34 2 0.68 2 0 2 C0.99 6.62 1.98 11.24 3 16 C3.99 16 4.98 16 6 16 C5.67 16.99 5.34 17.98 5 19 C1.05638164 16.82421056 -0.0863601 14.156661 -1.46484375 10.06640625 C-2.18781482 7.27478804 -2.3405717 4.86080225 -2 2 C-1.34 1.34 -0.68 0.68 0 0 Z " fill="#2EA8C7" transform="translate(104,54)"/>
<path d="M0 0 C2.45391569 3.68087353 2.22802759 6.44355588 2.125 10.6875 C2.11597656 11.38939453 2.10695312 12.09128906 2.09765625 12.81445312 C2.07413704 14.54311525 2.03826713 16.27160145 2 18 C1.34 18 0.68 18 0 18 C-0.19430855 15.3753399 -0.38073238 12.75053235 -0.5625 10.125 C-0.61857422 9.37863281 -0.67464844 8.63226563 -0.73242188 7.86328125 C-1.11328125 2.2265625 -1.11328125 2.2265625 0 0 Z " fill="#3F6294" transform="translate(161,104)"/>
<path d="M0 0 C0.66 0.33 1.32 0.66 2 1 C-5.11389522 9.81548975 -5.11389522 9.81548975 -10 11 C-8.85455923 7.56367769 -7.7288492 6.66528415 -5 4.375 C-4.278125 3.76398438 -3.55625 3.15296875 -2.8125 2.5234375 C-2.214375 2.02070312 -1.61625 1.51796875 -1 1 C-0.67 0.67 -0.34 0.34 0 0 Z " fill="#15A0C1" transform="translate(145,80)"/>
<path d="M0 0 C1.65 0.33 3.3 0.66 5 1 C4.67 2.32 4.34 3.64 4 5 C3.01 5 2.02 5 1 5 C0.34 4.34 -0.32 3.68 -1 3 C-0.67 2.01 -0.34 1.02 0 0 Z " fill="#EEF3F4" transform="translate(169,97)"/>
<path d="M0 0 C3.93673644 1.31224548 6.22719294 2.91910327 9 6 C8.67 6.99 8.34 7.98 8 9 C6.66079162 7.88200014 5.32877444 6.75538103 4 5.625 C2.88625 4.68527344 2.88625 4.68527344 1.75 3.7265625 C1.1725 3.15679687 0.595 2.58703125 0 2 C0 1.34 0 0.68 0 0 Z " fill="#456494" transform="translate(145,86)"/>
<path d="M0 0 C0.66 0 1.32 0 2 0 C3.39195915 4.17587745 1.82323219 6.13474776 0 10 C-0.99 10 -1.98 10 -3 10 C-2.690625 9.0925 -2.38125 8.185 -2.0625 7.25 C-1.2727737 4.83436662 -0.57050703 2.47219715 0 0 Z " fill="#D8ECF0" transform="translate(97,96)"/>
<path d="M0 0 C4.76058041 5.52841596 4.76058041 5.52841596 5 9 C4.34 9.66 3.68 10.32 3 11 C1.68 7.7 0.36 4.4 -1 1 C-0.67 0.67 -0.34 0.34 0 0 Z " fill="#E1ECF1" transform="translate(159,96)"/>
<path d="M0 0 C0 3.10551666 -0.5393715 4.35261084 -2 7 C-2.99 5.68 -3.98 4.36 -5 3 C-3.35 2.01 -1.7 1.02 0 0 Z " fill="#3E5E93" transform="translate(125,98)"/>
<path d="M0 0 C0.66 0.33 1.32 0.66 2 1 C1.25 2.9375 1.25 2.9375 0 5 C-2.125 5.75 -2.125 5.75 -4 6 C-2.25 1.125 -2.25 1.125 0 0 Z " fill="#21A4C4" transform="translate(96,97)"/>
</svg>
